<?xml version="1.0" encoding="UTF-8"?>
<svg xmlns="http://www.w3.org/2000/svg" viewBox="0 0 183 200" width="700" height="765">
  <style>tspan { white-space:pre }.shp0 { fill: #ffffff } </style>
  <g>
    <g>
      <g>
        <path class="shp0" d="M183.14 18.15L-0.08 18.09L-0.08 0L183.14 0.06L183.14 18.15Z"></path>
        <path class="shp0" d="M183.13 54.33L-0.09 54.27L-0.09 36.18L183.13 36.23L183.13 54.33Z"></path>
        <path class="shp0" d="M183.11 90.51L-0.11 90.45L-0.1 72.36L183.12 72.42L183.11 90.51Z"></path>
        <path class="shp0" d="M183.1 126.69L-0.12 126.63L-0.11 108.54L183.11 108.6L183.1 126.69Z"></path>
        <path class="shp0" d="M183.09 162.87L-0.13 162.81L-0.12 144.72L183.1 144.78L183.09 162.87Z"></path>
        <path class="shp0" d="M312.83 0"></path>
      </g>
      <g>
        <path class="shp0" d="M11.4 186.67C11.12 184.08 9.4 182.96 6.91 182.96C4.87 182.96 2.84 183.7 2.84 186.05C2.84 188.29 5.73 188.62 8.66 189.28C11.56 189.94 14.45 190.96 14.45 194.51C14.45 198.37 10.66 199.91 7.36 199.91C3.29 199.91 -0.14 197.93 -0.14 193.51L2.15 193.52C2.15 196.56 4.69 197.88 7.43 197.88C9.62 197.88 12.04 197.2 12.04 194.58C12.04 192.1 9.14 191.67 6.24 191.03C3.34 190.39 0.42 189.56 0.42 186.23C0.42 182.55 3.7 180.93 7.01 180.93C10.72 180.93 13.54 182.68 13.69 186.67L11.4 186.67Z"></path>
        <path class="shp0" d="M25.27 181.37L27.68 181.37L27.68 189.16L37.24 189.16L37.24 181.37L39.65 181.37L39.65 199.49L37.23 199.49L37.24 191.19L27.68 191.19L27.67 199.49L25.26 199.49L25.27 181.37Z"></path>
        <path fill-rule="evenodd" class="shp0" d="M56.44 181.38L59.11 181.38L66.19 199.5L63.52 199.5L61.54 194.04L53.87 194.04L51.83 199.5L49.34 199.49L56.44 181.38ZM54.63 192.01L60.78 192.01L57.76 183.56L57.71 183.56L54.63 192.01Z"></path>
        <path fill-rule="evenodd" class="shp0" d="M75.86 181.38L82.09 181.38C87.69 181.39 90.81 184.18 90.81 190.02C90.81 196.08 88.14 199.51 82.09 199.5L75.86 199.5L75.86 181.38ZM78.27 197.47L82.29 197.47C83.94 197.47 88.39 197.02 88.39 190.35C88.4 186.03 86.79 183.42 82.35 183.42L78.28 183.41L78.27 197.47Z"></path>
        <path class="shp0" d="M101.75 181.39L104.16 181.39L104.16 199.51L101.74 199.51L101.75 181.39Z"></path>
        <path class="shp0" d="M116.09 181.4L118.66 181.4L128.21 196.09L128.26 196.09L128.26 181.4L130.55 181.4L130.55 199.52L127.9 199.52L118.43 184.97L118.37 184.97L118.37 199.52L116.08 199.52L116.09 181.4Z"></path>
        <path class="shp0" d="M155.92 197.27C154.53 199.17 152.24 199.96 150.1 199.96C144.69 199.96 141.46 195.54 141.46 190.82C141.46 185.54 144.36 180.97 150.11 180.98C154.07 180.98 157.23 182.75 157.91 186.99L155.5 186.99C155.01 184.25 152.8 183.01 150.11 183.01C145.71 183 143.88 186.81 143.88 190.69C143.88 194.47 146.06 197.93 150.1 197.93C153.84 197.93 156.08 195.32 155.93 192.02L150.13 192.02L150.13 189.98L158.09 189.99L158.08 199.53L156.56 199.53L155.92 197.27Z"></path>
        <path class="shp0" d="M180.03 186.72C179.75 184.13 178.03 183.01 175.53 183.01C173.5 183.01 171.47 183.75 171.47 186.11C171.47 188.34 174.36 188.67 177.29 189.33C180.19 189.99 183.08 191.01 183.08 194.56C183.08 198.42 179.29 199.97 175.99 199.97C171.92 199.97 168.49 197.98 168.49 193.57L170.78 193.57C170.78 196.61 173.32 197.93 176.06 197.94C178.25 197.94 180.67 197.25 180.67 194.64C180.67 192.15 177.77 191.72 174.87 191.08C171.97 190.45 169.05 189.61 169.05 186.28C169.05 182.61 172.33 180.98 175.64 180.98C179.35 180.99 182.17 182.74 182.32 186.72L180.03 186.72Z"></path>
      </g>
    </g>
    <path class="shp0" d="M324.58 -50.93"></path>
  </g>
</svg>
